<svg xmlns="http://www.w3.org/2000/svg" viewBox="0 0 54 34">
  <path
    fill="#38BDF8"
    fill-rule="evenodd"
    clip-rule="evenodd"
    d="M27 0C19.8 0 15.3 3.6 13.5 10.8c2.7-3.6 5.85-4.95 9.45-4.05
       2.05.51 3.52 2.004 5.15 3.653C30.75 12.756 33.81 16 40.5 16
       c7.2 0 11.7-3.6 13.5-10.8-2.7 3.6-5.85 4.95-9.45 4.05
       -2.05-.513-3.52-2.004-5.15-3.653C37.25 3.244 34.19 0 27 0z
       M13.5 17C6.3 17 1.8 20.6 0 27.8c2.7-3.6 5.85-4.95 9.45-4.05
       2.05.513 3.52 2.004 5.15 3.653C16.75 29.756 19.81 33 26.5 33
       c7.2 0 11.7-3.6 13.5-10.8-2.7 3.6-5.85 4.95-9.45 4.05
       -2.05-.513-3.52-2.004-5.15-3.653C23.25 20.244 20.19 17 13.5 17z"
  />
</svg>
